HIERARCHY
ROOT Hips
{
	OFFSET 0.000000 35.082581 0.000000
	CHANNELS 6 Xposition Yposition Zposition Xrotation Yrotation Zrotation 
	JOINT Spine
	{
		OFFSET 0.000000 6.876099 0.125700
		CHANNELS 3 Xrotation Yrotation Zrotation
		JOINT Spine1
		{
			OFFSET 0.000000 5.730043 0.104720
			CHANNELS 3 Xrotation Yrotation Zrotation
			JOINT Spine1_split
			{
				OFFSET 0.000000 5.730043 0.104720
				CHANNELS 3 Xrotation Yrotation Zrotation
				JOINT Spine2
				{
					OFFSET 0.000000 5.730043 0.104720
					CHANNELS 3 Xrotation Yrotation Zrotation
					JOINT Neck
					{
						OFFSET 0.000000 10.314075 0.188496
						CHANNELS 3 Xrotation Yrotation Zrotation
						JOINT Head
						{
							OFFSET 0.000000 7.643700 -2.377400
							CHANNELS 3 Xrotation Yrotation Zrotation
							JOINT HeadTop_End
							{
								OFFSET 0.000000 43.788605 -13.619600
								CHANNELS 3 Xrotation Yrotation Zrotation
								End Site
								{
									OFFSET 0.000000 0.000000 0.000000
								}
							}
						}
					}
					JOINT LeftShoulder
					{
						OFFSET 2.196100 4.412489 0.087492
						CHANNELS 3 Xrotation Yrotation Zrotation
						JOINT LeftShoulder_split
						{
							OFFSET 2.196100 4.412489 0.087492
							CHANNELS 3 Xrotation Yrotation Zrotation
							JOINT LeftArm
							{
								OFFSET 8.771219 -2.981674 -0.026999
								CHANNELS 3 Xrotation Yrotation Zrotation
								JOINT LeftForeArm
								{
									OFFSET 8.512804 0.000000 -0.000000
									CHANNELS 3 Xrotation Yrotation Zrotation
									JOINT LeftHand
									{
										OFFSET 18.484802 0.000000 -0.000000
										CHANNELS 3 Xrotation Yrotation Zrotation
										JOINT LeftHandThumb1
										{
											OFFSET 2.499420 -1.158070 2.653252
											CHANNELS 3 Xrotation Yrotation Zrotation
											JOINT LeftHandThumb2
											{
												OFFSET 2.370079 -1.368366 1.368366
												CHANNELS 3 Xrotation Yrotation Zrotation
												JOINT LeftHandThumb3
												{
													OFFSET 2.676727 -1.545410 1.545409
													CHANNELS 3 Xrotation Yrotation Zrotation
													JOINT LeftHandThumb4
													{
														OFFSET 1.692226 -0.977005 0.977007
														CHANNELS 3 Xrotation Yrotation Zrotation
														End Site
														{
															OFFSET 0.000000 0.000000 0.000000
														}
													}
												}
											}
										}
										JOINT LeftHandIndex1
										{
											OFFSET 7.924831 -0.457527 2.345128
											CHANNELS 3 Xrotation Yrotation Zrotation
											JOINT LeftHandIndex2
											{
												OFFSET 3.643303 0.000000 0.000000
												CHANNELS 3 Xrotation Yrotation Zrotation
												JOINT LeftHandIndex3
												{
													OFFSET 3.810799 0.000000 0.000000
													CHANNELS 3 Xrotation Yrotation Zrotation
													JOINT LeftHandIndex4
													{
														OFFSET 2.403702 0.000000 0.000000
														CHANNELS 3 Xrotation Yrotation Zrotation
														End Site
														{
															OFFSET 0.000000 0.000000 0.000000
														}
													}
												}
											}
										}
										JOINT LeftHandMiddle1
										{
											OFFSET 8.563995 0.000000 -0.000000
											CHANNELS 3 Xrotation Yrotation Zrotation
											JOINT LeftHandMiddle2
											{
												OFFSET 3.861618 0.000000 0.000000
												CHANNELS 3 Xrotation Yrotation Zrotation
												JOINT LeftHandMiddle3
												{
													OFFSET 3.701603 0.000000 0.000000
													CHANNELS 3 Xrotation Yrotation Zrotation
													JOINT LeftHandMiddle4
													{
														OFFSET 2.322544 0.000000 0.000000
														CHANNELS 3 Xrotation Yrotation Zrotation
														End Site
														{
															OFFSET 0.000000 0.000000 0.000000
														}
													}
												}
											}
										}
										JOINT LeftHandRing1
										{
											OFFSET 8.426460 -0.424637 -3.286992
											CHANNELS 3 Xrotation Yrotation Zrotation
											JOINT LeftHandRing2
											{
												OFFSET 3.126408 0.000000 0.000000
												CHANNELS 3 Xrotation Yrotation Zrotation
												JOINT LeftHandRing3
												{
													OFFSET 3.085026 0.000000 0.000000
													CHANNELS 3 Xrotation Yrotation Zrotation
													JOINT LeftHandRing4
													{
														OFFSET 1.644005 0.000000 0.000000
														CHANNELS 3 Xrotation Yrotation Zrotation
														End Site
														{
															OFFSET 0.000000 0.000000 0.000000
														}
													}
												}
											}
										}
									}
								}
							}
						}
					}
					JOINT RightShoulder
					{
						OFFSET -2.196100 4.412496 0.070690
						CHANNELS 3 Xrotation Yrotation Zrotation
						JOINT RightShoulder_split
						{
							OFFSET -2.196100 4.412496 0.070690
							CHANNELS 3 Xrotation Yrotation Zrotation
							JOINT RightArm
							{
								OFFSET -8.771282 -2.981682 -0.094208
								CHANNELS 3 Xrotation Yrotation Zrotation
								JOINT RightForeArm
								{
									OFFSET -8.494598 0.000000 0.000000
									CHANNELS 3 Xrotation Yrotation Zrotation
									JOINT RightHand
									{
										OFFSET -18.483803 0.000000 0.000001
										CHANNELS 3 Xrotation Yrotation Zrotation
										JOINT RightHandThumb1
										{
											OFFSET -2.527351 -1.008072 2.575253
											CHANNELS 3 Xrotation Yrotation Zrotation
											JOINT RightHandThumb2
											{
												OFFSET -2.321518 -1.340328 1.340329
												CHANNELS 3 Xrotation Yrotation Zrotation
												JOINT RightHandThumb3
												{
													OFFSET -2.657753 -1.534454 1.534455
													CHANNELS 3 Xrotation Yrotation Zrotation
													JOINT RightHandThumb4
													{
														OFFSET -1.807510 -1.043568 1.043567
														CHANNELS 3 Xrotation Yrotation Zrotation
														End Site
														{
															OFFSET 0.000000 0.000000 0.000000
														}
													}
												}
											}
										}
										JOINT RightHandIndex1
										{
											OFFSET -8.811420 0.015533 2.887987
											CHANNELS 3 Xrotation Yrotation Zrotation
											JOINT RightHandIndex2
											{
												OFFSET -3.537502 0.000000 0.000000
												CHANNELS 3 Xrotation Yrotation Zrotation
												JOINT RightHandIndex3
												{
													OFFSET -3.356201 0.000000 0.000000
													CHANNELS 3 Xrotation Yrotation Zrotation
													JOINT RightHandIndex4
													{
														OFFSET -1.933098 0.000000 0.000000
														CHANNELS 3 Xrotation Yrotation Zrotation
														End Site
														{
															OFFSET 0.000000 0.000000 0.000000
														}
													}
												}
											}
										}
										JOINT RightHandMiddle1
										{
											OFFSET -8.178135 0.000000 0.000000
											CHANNELS 3 Xrotation Yrotation Zrotation
											JOINT RightHandMiddle2
											{
												OFFSET -3.901302 0.000000 0.000000
												CHANNELS 3 Xrotation Yrotation Zrotation
												JOINT RightHandMiddle3
												{
													OFFSET -3.909599 0.000000 0.000000
													CHANNELS 3 Xrotation Yrotation Zrotation
													JOINT RightHandMiddle4
													{
														OFFSET -2.376003 0.000000 0.000000
														CHANNELS 3 Xrotation Yrotation Zrotation
														End Site
														{
															OFFSET 0.000000 0.000000 0.000000
														}
													}
												}
											}
										}
										JOINT RightHandRing1
										{
											OFFSET -7.559013 0.014137 -2.865403
											CHANNELS 3 Xrotation Yrotation Zrotation
											JOINT RightHandRing2
											{
												OFFSET -3.449306 0.000000 0.000000
												CHANNELS 3 Xrotation Yrotation Zrotation
												JOINT RightHandRing3
												{
													OFFSET -3.362106 0.000000 0.000000
													CHANNELS 3 Xrotation Yrotation Zrotation
													JOINT RightHandRing4
													{
														OFFSET -2.076401 0.000000 0.000000
														CHANNELS 3 Xrotation Yrotation Zrotation
														End Site
														{
															OFFSET 0.000000 0.000000 0.000000
														}
													}
												}
											}
										}
									}
								}
							}
						}
					}
				}
			}
		}
	}
	JOINT LeftUpLeg
	{
		OFFSET 10.205400 -3.823500 0.155100
		CHANNELS 3 Xrotation Yrotation Zrotation
		JOINT LeftLeg
		{
			OFFSET 0.708757 -12.982077 0.567790
			CHANNELS 3 Xrotation Yrotation Zrotation
			JOINT LeftFoot
			{
				OFFSET -0.708756 -10.717838 -2.184338
				CHANNELS 3 Xrotation Yrotation Zrotation
				JOINT LeftToeBase
				{
					OFFSET 0.108149 -7.191104 7.560241
					CHANNELS 3 Xrotation Yrotation Zrotation
					JOINT LeftToe_End
					{
						OFFSET 0.070230 0.081724 4.490308
						CHANNELS 3 Xrotation Yrotation Zrotation
						End Site
						{
							OFFSET 0.000000 0.000000 0.000000
						}
					}
				}
			}
		}
	}
	JOINT RightUpLeg
	{
		OFFSET -10.205400 -3.823500 0.005500
		CHANNELS 3 Xrotation Yrotation Zrotation
		JOINT RightLeg
		{
			OFFSET -0.708756 -12.982134 0.610632
			CHANNELS 3 Xrotation Yrotation Zrotation
			JOINT RightFoot
			{
				OFFSET 0.708754 -10.717769 -1.945823
				CHANNELS 3 Xrotation Yrotation Zrotation
				JOINT RightToeBase
				{
					OFFSET -0.108140 -7.191069 7.372968
					CHANNELS 3 Xrotation Yrotation Zrotation
					JOINT RightToe_End
					{
						OFFSET -0.070227 0.081735 4.479403
						CHANNELS 3 Xrotation Yrotation Zrotation
						End Site
						{
							OFFSET 0.000000 0.000000 0.000000
						}
					}
				}
			}
		}
	}
}
MOTION
Frames: 5
Frame Time: 0.016667
0.825081 13.435080 -11.299685 35.515495 3.427287 2.084668 20.857632 4.645105 -5.466691 16.625266 2.079677 -1.485668 0.000000 0.000000 0.000000 17.328745 1.234476 -2.301335 5.476090 -1.525564 3.253846 0.036677 -8.619863 6.396878 -0.000000 0.000000 0.000000 1.353965 -36.456650 -6.881270 0.000000 0.000000 0.000000 -62.004512 -39.879907 -54.567747 0.000008 -60.951850 -0.000015 -18.879901 -14.506193 -10.306277 46.706879 -54.290899 -12.631188 3.448287 53.010850 10.294982 55.540978 55.566625 -29.377842 -0.000005 0.000000 -0.000006 6.697748 5.391171 -58.720448 3.793588 5.478588 -69.379880 1.468830 3.880774 -41.449700 0.000000 0.000001 0.000000 -2.544105 3.154099 -51.895221 5.923356 5.850624 -90.709085 2.207253 4.581020 -51.433257 0.000001 0.000000 0.000002 0.963605 5.963302 -53.197895 4.594746 5.715046 -77.580185 2.697978 4.931295 -57.346582 -0.000001 0.000000 0.000001 0.501212 13.720769 0.229925 0.000000 0.000000 0.000000 -44.186867 22.328139 43.767924 -0.000006 66.682017 -0.000001 -26.725456 16.671131 -4.017996 69.260290 51.829863 -9.321602 -17.238286 -69.068341 -27.413500 100.202010 -53.850550 76.704691 -0.000001 0.000000 0.000003 4.914269 -3.615818 60.176494 3.071674 -4.379539 70.075931 1.182052 -3.102344 41.707389 -0.000001 -0.000001 0.000001 0.967459 -5.391917 56.500394 4.691408 -4.657059 90.421562 2.232049 -3.977120 58.590695 0.000000 -0.000002 0.000001 3.739696 -7.060329 61.039297 4.198927 -4.634607 84.346908 2.796387 -4.270034 66.426759 -0.000001 0.000003 -0.000001 -64.588837 -11.280899 11.869678 136.730238 -7.658543 -2.688437 14.217589 9.914653 -21.849707 24.254756 18.818257 38.297987 0.000000 0.000000 0.000000 -48.364358 15.919161 -32.689422 138.557914 18.628882 4.407050 -3.151482 5.229503 9.234716 -4.945582 -35.698674 -44.012851 -0.000002 0.000004 0.000001 
0.787299 13.401028 -11.571299 33.203472 2.514153 2.105211 21.187739 4.405936 -6.213612 17.022966 1.980984 -1.805812 0.000000 0.000000 0.000000 18.108112 1.141501 -2.575392 5.617638 -1.520869 3.438338 1.609230 -7.888320 6.936110 0.000000 0.000000 -0.000000 0.477516 -34.381786 -9.362755 0.000000 0.000000 0.000000 -61.426179 -41.959413 -53.402234 0.000028 -61.272903 0.000023 -22.963472 -13.256062 -12.254858 46.706473 -54.290411 -12.629991 3.450907 53.011284 10.293372 55.540079 55.566191 -29.375609 -0.000004 0.000002 -0.000004 6.698393 5.389830 -58.719942 3.793566 5.478570 -69.379388 1.468927 3.880860 -41.451141 0.000001 0.000003 -0.000000 -2.545126 3.153138 -51.894189 5.923205 5.850615 -90.707876 2.207209 4.581004 -51.432738 -0.000001 0.000000 -0.000001 0.964024 5.963684 -53.199271 4.594583 5.715013 -77.578586 2.697874 4.931229 -57.345421 -0.000000 0.000001 0.000002 0.583502 12.269618 0.145181 0.000000 0.000000 0.000000 -46.315250 24.522722 46.813485 0.000023 65.396070 -0.000023 -21.012640 17.831705 -3.834767 69.234172 51.862074 -9.337214 -17.171476 -69.029129 -27.340674 99.875978 -53.626120 76.456427 -0.000002 0.000003 0.000000 4.909858 -3.611807 60.155047 3.069805 -4.378869 70.051383 1.180995 -3.101157 41.687735 0.000002 -0.000001 0.000000 0.966404 -5.390585 56.478923 4.689409 -4.657074 90.397007 2.230683 -3.976277 58.571030 -0.000002 -0.000002 -0.000000 3.737773 -7.059881 61.017700 4.196951 -4.634409 84.322312 2.794921 -4.269386 66.407081 0.000001 0.000001 0.000000 -61.303639 -11.187210 13.262737 137.611250 -8.797602 -2.686839 12.600078 10.460116 -21.699909 24.247095 18.827835 38.310415 0.000001 -0.000001 -0.000001 -48.349393 16.366837 -31.618271 139.675197 18.257999 3.833127 -2.315332 4.865425 9.134395 -5.010092 -35.585374 -43.812327 -0.000002 -0.000002 0.000000 
0.756231 13.387207 -11.757610 31.495044 1.865839 2.092500 21.397707 4.086416 -6.622595 17.202566 1.870332 -1.986119 0.000000 0.000000 0.000000 18.500462 1.040076 -2.690534 5.684563 -1.489047 3.465678 2.673361 -7.397685 7.196645 0.000000 0.000001 0.000000 -0.501366 -31.291074 -12.871375 0.000000 0.000000 0.000000 -60.476742 -44.977380 -51.911770 0.000005 -61.886514 0.000023 -28.497602 -11.740397 -12.578098 46.706118 -54.289885 -12.628653 3.453631 53.011755 10.291748 55.538085 55.565095 -29.372395 -0.000002 0.000004 -0.000004 6.699113 5.388245 -58.718740 3.793469 5.478519 -69.378248 1.469012 3.880989 -41.452623 0.000001 -0.000001 -0.000001 -2.546230 3.152099 -51.892974 5.923084 5.850645 -90.706572 2.207108 4.580923 -51.431495 0.000000 0.000002 0.000003 0.964502 5.964089 -53.200712 4.594410 5.714999 -77.576899 2.697761 4.931149 -57.344089 0.000001 -0.000000 -0.000002 0.552216 11.477487 0.087608 0.000000 0.000000 0.000000 -48.643207 26.757876 49.917160 0.000005 63.773579 0.000024 -14.598411 19.870914 -3.658885 69.205669 51.896365 -9.358325 -17.081306 -68.975977 -27.242136 99.509047 -53.376832 76.179996 -0.000003 -0.000000 0.000001 4.904431 -3.606876 60.131093 3.067718 -4.378093 70.024028 1.179797 -3.099840 41.665851 0.000000 -0.000002 0.000002 0.965194 -5.389100 56.454963 4.687195 -4.657068 90.369577 2.229163 -3.975358 58.549071 -0.000001 -0.000000 -0.000001 3.735633 -7.059420 60.993603 4.194751 -4.634184 84.294889 2.793286 -4.268673 66.385081 -0.000002 0.000000 -0.000000 -58.810989 -11.056161 14.286655 138.146846 -9.513732 -2.667178 11.449216 10.752817 -21.537856 24.243627 18.834115 38.315657 0.000001 0.000000 -0.000000 -48.236100 16.710647 -30.760232 140.329925 18.283052 3.534514 -1.658321 4.303977 9.115246 -5.106295 -35.370459 -43.495809 -0.000000 0.000000 -0.000002 
0.728767 13.382992 -11.897736 30.132916 1.353368 2.069589 21.517990 3.767046 -6.885474 17.308531 1.764368 -2.107499 0.000000 0.000000 0.000000 18.739553 0.943238 -2.743024 5.724963 -1.448772 3.430576 3.539761 -7.023166 7.344355 -0.000000 0.000000 0.000000 -1.190618 -27.773410 -16.681115 0.000000 0.000000 0.000000 -58.867454 -47.971615 -49.903316 0.000002 -63.757630 0.000006 -34.031281 -10.583136 -11.107777 46.705776 -54.289253 -12.627129 3.456486 53.012288 10.290140 55.535291 55.563585 -29.368673 -0.000003 0.000003 -0.000000 6.699892 5.386523 -58.717422 3.793346 5.478492 -69.376977 1.469130 3.881097 -41.454167 -0.000001 -0.000002 0.000001 -2.547360 3.151046 -51.891806 5.922932 5.850626 -90.705035 2.206994 4.580844 -51.430119 0.000001 -0.000003 -0.000005 0.965014 5.964525 -53.202212 4.594248 5.714955 -77.575151 2.697646 4.931079 -57.342751 -0.000000 0.000001 0.000001 0.425802 11.211957 0.063318 0.000000 0.000000 0.000000 -50.733586 28.440170 52.955584 -0.000022 62.997567 0.000008 -8.850954 21.981437 -3.713555 69.176040 51.931199 -9.384749 -16.971972 -68.909341 -27.122555 99.116024 -53.111684 75.887165 0.000002 -0.000000 0.000001 4.898569 -3.601238 60.105494 3.065485 -4.377286 69.994795 1.178545 -3.098412 41.642448 0.000001 -0.000000 0.000001 0.963898 -5.387469 56.429377 4.684811 -4.657082 90.340324 2.227532 -3.974343 58.525637 -0.000000 0.000002 0.000000 3.733387 -7.058928 60.967921 4.192357 -4.633940 84.265663 2.791538 -4.267912 66.361640 0.000000 -0.000001 -0.000000 -56.740277 -11.057629 15.138940 138.487208 -10.013864 -2.721824 10.562220 10.792087 -21.355126 24.241415 18.835819 38.314435 -0.000001 -0.000004 -0.000001 -48.109421 16.997426 -30.034859 140.747003 18.576646 3.396977 -1.088108 3.582945 9.097281 -5.200068 -35.141528 -43.191958 -0.000001 0.000000 0.000002 
0.702573 13.386627 -12.002632 29.030517 0.943793 2.043857 21.572138 3.446902 -7.039126 17.359182 1.662023 -2.184655 0.000000 0.000000 0.000000 18.863263 0.849935 -2.748510 5.745508 -1.402228 3.348722 4.259347 -6.738455 7.407412 -0.000000 0.000001 0.000000 -1.471531 -24.595026 -20.001010 0.000000 0.000000 0.000000 -56.443720 -50.000516 -47.503460 -0.000007 -67.329403 0.000008 -38.156620 -10.095682 -8.717050 46.705745 -54.288557 -12.625266 3.459575 53.012865 10.288460 55.531982 55.561765 -29.364643 -0.000004 -0.000000 0.000003 6.700688 5.384700 -58.716145 3.793223 5.478435 -69.375734 1.469218 3.881219 -41.455765 -0.000001 -0.000001 -0.000001 -2.548532 3.149961 -51.890682 5.922772 5.850639 -90.703457 2.206896 4.580750 -51.428821 0.000000 0.000000 -0.000001 0.965555 5.964972 -53.203755 4.594029 5.714882 -77.573197 2.697538 4.931022 -57.341555 -0.000001 -0.000001 -0.000002 0.263107 11.153656 0.069209 0.000000 0.000000 0.000000 -51.972064 29.135675 55.668279 0.000028 63.901508 -0.000014 -4.906435 23.250237 -3.864152 69.146383 51.965138 -9.416138 -16.845091 -68.830931 -26.983634 98.710392 -52.839125 75.588324 -0.000001 -0.000004 -0.000002 4.892895 -3.595117 60.079061 3.063170 -4.376446 69.964619 1.177247 -3.096927 41.618296 -0.000000 0.000000 0.000003 0.962496 -5.385809 56.402934 4.682365 -4.657118 90.310079 2.225854 -3.973340 58.501431 0.000001 -0.000001 0.000001 3.731082 -7.058446 60.941352 4.189901 -4.633710 84.235412 2.789754 -4.267130 66.337413 -0.000000 0.000002 -0.000001 -55.045536 -11.086350 15.842159 138.699449 -10.283046 -2.767284 9.903256 10.654476 -21.171397 24.246835 18.828692 38.298633 0.000002 -0.000002 0.000000 -47.727248 17.570547 -29.485138 140.890192 19.360168 3.635054 -0.615307 2.764920 9.083017 -5.285049 -34.949030 -42.939494 0.000000 -0.000002 -0.000001 
